<?xml version="1.0" encoding="utf-8"?>
<svg xmlns="http://www.w3.org/2000/svg" xmlns:xlink="http://www.w3.org/1999/xlink" version="1.1" style="width:0;height:0;position:absolute;overflow:hidden;">
  <defs>
<symbol viewBox="0 0 1664 1587" aria-labelledby="uesi-awesome-star-o-title" id="si-awesome-star-o"><title id="uesi-awesome-star-o-title">icon star-o</title><path d="M1137 972l306-297-422-62-189-382-189 382-422 62 306 297-73 421 378-199 377 199zm527-357q0 22-26 48l-363 354 86 500q1 7 1 20 0 50-41 50-19 0-40-12l-449-236-449 236q-22 12-40 12-21 0-31.5-14.5T301 1537q0-6 2-20l86-500L25 663Q0 636 0 615q0-37 56-46l502-73L783 41q19-41 49-41t49 41l225 455 502 73q56 9 56 46z"/></symbol>
<symbol viewBox="0 0 1664 1587" aria-labelledby="ubsi-awesome-star-title" id="si-awesome-star"><title id="ubsi-awesome-star-title">icon star</title><path d="M1664 615q0 22-26 48l-363 354 86 500q1 7 1 20 0 21-10.5 35.5T1321 1587q-19 0-40-12l-449-236-449 236q-22 12-40 12-21 0-31.5-14.5T301 1537q0-6 2-20l86-500L25 663Q0 636 0 615q0-37 56-46l502-73L783 41q19-41 49-41t49 41l225 455 502 73q56 9 56 46z"/></symbol>
  </defs>
</svg>
